# xmcd
#
# Track frame offsets:
#	150
#	12999
#	23272
#	33693
#	46248
#	56592
#	69554
#	80311
#	91135
#	104216
#	115139
#	127121
#	140140
#	151164
#	162259
#	173689
#	186079
#	196700
#	210667
#	223144
#	233524
#	244674
#	258547
#	268726
#	280363
#
# Disc length: 3908 seconds
#
# Revision: 0
# Processed by: cddbd v1.5.2PL0 Copyright (c) Steve Scherf et al.
# Submitted via: EasyCDDAExtractor 2010.6.0.0
#
DISCID=630f4219
DTITLE=Various Artist - Bluegrass - Historic Cuts -Mainly Kentucky Sides Cd B
DYEAR=1900
DGENRE=
TTITLE0=Allen Red - Preaching And Praying
TTITLE1=Allen Red - Paul And Silas
TTITLE2=Allen Red - Boat Of Love
TTITLE3=Allen Red - Bouquet In Heaven
TTITLE4=Allen Red - Mansions For Me
TTITLE5=Allen Red - White Dove
TTITLE6=Allen Red - Down In The Willow Garden
TTITLE7=Allen Red - Ho Honey Ho
TTITLE8=McReynolds Jim and Jesse - Sing Sing Sing
TTITLE9=McReynolds Jim and Jesse - Let Me Travel Alone
TTITLE10=McReynolds Jim and Jesse - I'll Fly Away
TTITLE11=McReynolds Jim and Jesse - God Put A Rainbow In The Cloud
TTITLE12=McReynolds Jim and Jesse - Are You Missing Me
TTITLE13=McReynolds Jim and Jesse - I'll Wash Your Love From My Heart
TTITLE14=Anderson Ray - What Would The Profit Be
TTITLE15=Anderson Ray - When The Saints Go Marching In
TTITLE16=Johnson Enos and Sonny Osborne - River Of Death
TTITLE17=Johnson Enos and Sonny Osborne - I'll Meet You In Church Sunday Morning
TTITLE18=Johnson Enos and Sonny Osborne - I'm On My Way To The Old Folks Home
TTITLE19=Johnson Enos and Sonny Osborne - Sugar Coated Love
TTITLE20=Osborne Sonny - I'll Stay Around
TTITLE21=Osborne Sonny - Letter From My Darling
TTITLE22=Renfro Family - Where The Soul Never Dies
TTITLE23=Renfro Family - Power In The Blood
TTITLE24=Thomas Billy - Black Mountain Rag
EXTD=
EXTT0=
EXTT1=
EXTT2=
EXTT3=
EXTT4=
EXTT5=
EXTT6=
EXTT7=
EXTT8=
EXTT9=
EXTT10=
EXTT11=
EXTT12=
EXTT13=
EXTT14=
EXTT15=
EXTT16=
EXTT17=
EXTT18=
EXTT19=
EXTT20=
EXTT21=
EXTT22=
EXTT23=
EXTT24=
PLAYORDER=
